<svg width="27" height="35" viewBox="0 0 27 35" fill="none" xmlns="http://www.w3.org/2000/svg">
<path d="M26.2858 25.8217C26.287 26.9919 26.0568 28.151 25.6085 29.2322C25.1602 30.3135 24.5026 31.2958 23.6733 32.1228C21.9991 33.7938 19.7289 34.7325 17.3618 34.7325C14.9947 34.7325 12.7244 33.7938 11.0502 32.1228L6.69397 27.7728C7.42709 27.9283 8.17456 28.0063 8.92403 28.0055C10.3274 28.0089 11.7174 27.7343 13.0138 27.1978C14.3102 26.6612 15.4871 25.8733 16.4766 24.8796L22.759 18.6139L23.6733 19.5231C24.5019 20.35 25.1591 21.3319 25.6074 22.4127C26.0557 23.4935 26.2862 24.6519 26.2858 25.8217Z" fill="#133231"/>
<path d="M23.6733 15.2098L22.759 16.1227L16.4766 9.85195C15.4871 8.85843 14.3101 8.0707 13.0137 7.53436C11.7173 6.99802 10.3273 6.72371 8.92403 6.7273C8.1746 6.72609 7.42713 6.80366 6.69397 6.95872L11.0502 2.60874C11.8784 1.78028 12.8623 1.12335 13.9454 0.675667C15.0285 0.227984 16.1895 -0.00162966 17.3618 1.99414e-05C18.5342 -0.00246206 19.6954 0.226771 20.7787 0.674501C21.8619 1.12223 22.8457 1.7796 23.6733 2.60874C24.502 3.43611 25.1593 4.41836 25.6077 5.49941C26.0562 6.58045 26.287 7.73912 26.287 8.90925C26.287 10.0794 26.0562 11.238 25.6077 12.3191C25.1593 13.4001 24.502 14.3824 23.6733 15.2098Z" fill="#133231"/>
<path d="M15.233 23.6378L21.5155 17.3645L15.233 11.0912C14.4044 10.2637 13.4206 9.60733 12.3379 9.1595C11.2552 8.71167 10.0947 8.48117 8.92277 8.48117C7.75085 8.48117 6.5904 8.71167 5.50768 9.1595C4.42496 9.60733 3.44118 10.2637 2.6125 11.0912C0.943498 12.754 0.00383943 15.0103 0 17.3645C0.00370052 19.7187 0.94338 21.9752 2.6125 23.6378C3.44118 24.4653 4.42496 25.1217 5.50768 25.5695C6.5904 26.0174 7.75085 26.2479 8.92277 26.2479C10.0947 26.2479 11.2552 26.0174 12.3379 25.5695C13.4206 25.1217 14.4044 24.4653 15.233 23.6378Z" fill="#133231"/>
</svg>
