<svg width="214" height="55" viewBox="0 0 214 55" fill="none" xmlns="http://www.w3.org/2000/svg">
<g clip-path="url(#clip0_1_471)">
<path d="M110.348 39.4888V41.5954H112.648V42.2743H110.348V44.4449H112.921V45.1238H109.524V38.812H112.921V39.4888H110.348Z" fill="#333333"/>
<path d="M116.017 44.3669L117.557 40.1617H118.436L116.488 45.1178H115.528L113.581 40.1617H114.469L116.017 44.3669Z" fill="#333333"/>
<path d="M123.754 42.9551H119.785C119.786 43.1632 119.828 43.3691 119.909 43.5607C119.991 43.7523 120.11 43.9257 120.259 44.0707C120.409 44.2157 120.586 44.3293 120.78 44.405C120.974 44.4806 121.181 44.5167 121.39 44.511C121.706 44.5219 122.017 44.4352 122.282 44.2627C122.517 44.1011 122.694 43.8679 122.785 43.5979H123.674C123.545 44.0644 123.263 44.4738 122.872 44.7593C122.439 45.0687 121.917 45.2264 121.386 45.2079C120.944 45.2151 120.508 45.1052 120.122 44.8895C119.751 44.6787 119.448 44.3668 119.248 43.9904C119.042 43.5702 118.935 43.1085 118.935 42.6407C118.935 42.1729 119.042 41.7113 119.248 41.2911C119.442 40.9158 119.743 40.6059 120.112 40.4C120.505 40.1863 120.947 40.0786 121.394 40.0876C121.831 40.0787 122.262 40.185 122.645 40.396C122.999 40.5922 123.289 40.8854 123.481 41.241C123.681 41.6146 123.783 42.0329 123.776 42.4565C123.777 42.623 123.77 42.7894 123.754 42.9551ZM122.729 41.4753C122.594 41.2533 122.398 41.0747 122.164 40.9606C121.914 40.8399 121.639 40.7795 121.362 40.7844C120.969 40.7753 120.588 40.9189 120.299 41.1849C119.994 41.4737 119.814 41.8693 119.795 42.2883H122.93C122.94 42.0039 122.871 41.7223 122.729 41.4753Z" fill="#333333"/>
<path d="M126.313 40.3138C126.613 40.1489 126.953 40.0673 127.295 40.0776V40.9286H127.079C126.154 40.9286 125.691 41.4292 125.691 42.4305V45.1258H124.867V40.1697H125.691V40.9707C125.83 40.6961 126.046 40.4679 126.313 40.3138Z" fill="#333333"/>
<path d="M132.521 40.1697L129.533 47.4587H128.681L129.66 45.0717L127.654 40.1697H128.569L130.127 44.1846L131.667 40.1697H132.521Z" fill="#333333"/>
<path d="M134.36 40.8465V43.7681C134.341 43.9524 134.396 44.1367 134.513 44.2807C134.666 44.3953 134.857 44.4482 135.048 44.4289H135.65V45.1258H134.908C134.536 45.1536 134.167 45.0407 133.875 44.8094C133.646 44.5971 133.53 44.2507 133.53 43.7681V40.8465H132.888V40.1697H133.53V38.9201H134.36V40.1697H135.654V40.8465H134.36Z" fill="#333333"/>
<path d="M140.122 40.3179C140.426 40.4805 140.673 40.7311 140.832 41.0367C141.014 41.3984 141.103 41.7996 141.09 42.2042V45.1258H140.276V42.3223C140.304 41.9098 140.171 41.5026 139.903 41.1869C139.774 41.0535 139.617 40.9489 139.445 40.8799C139.272 40.8109 139.086 40.779 138.901 40.7864C138.709 40.7762 138.517 40.8066 138.338 40.8756C138.159 40.9446 137.997 41.0507 137.862 41.1869C137.584 41.5165 137.446 41.9409 137.477 42.3704V45.1118H136.653V38.4315H137.477V40.8745C137.643 40.6199 137.877 40.4162 138.153 40.2858C138.455 40.1468 138.785 40.0783 139.117 40.0856C139.466 40.0796 139.811 40.1594 140.122 40.3179Z" fill="#333333"/>
<path d="M142.468 39.2005C142.415 39.1481 142.373 39.0858 142.344 39.017C142.315 38.9483 142.3 38.8745 142.3 38.8C142.3 38.7255 142.315 38.6517 142.344 38.5829C142.373 38.5142 142.415 38.4518 142.468 38.3995C142.52 38.3463 142.583 38.3044 142.652 38.2765C142.721 38.2485 142.795 38.2352 142.869 38.2373C142.941 38.2358 143.013 38.2495 143.079 38.2775C143.145 38.3054 143.205 38.347 143.254 38.3995C143.358 38.5072 143.415 38.6507 143.415 38.8C143.415 38.9492 143.358 39.0927 143.254 39.2005C143.205 39.2536 143.146 39.2958 143.079 39.3241C143.013 39.3524 142.941 39.3662 142.869 39.3647C142.795 39.3669 142.72 39.3534 142.651 39.3251C142.582 39.2968 142.52 39.2543 142.468 39.2005ZM143.27 40.1697V45.1258H142.446V40.1697H143.27Z" fill="#333333"/>
<path d="M148.554 40.6262C148.93 40.9907 149.117 41.5167 149.116 42.2042V45.1258H148.302V42.3223C148.33 41.9098 148.196 41.5026 147.929 41.1869C147.799 41.0535 147.643 40.9489 147.47 40.8799C147.297 40.8109 147.112 40.779 146.926 40.7864C146.734 40.7762 146.543 40.8066 146.364 40.8756C146.185 40.9446 146.022 41.0507 145.887 41.1869C145.61 41.5165 145.472 41.9409 145.502 42.3704V45.1118H144.668V40.1697H145.492V40.8745C145.657 40.6217 145.887 40.4182 146.158 40.2858C146.448 40.1483 146.766 40.0797 147.087 40.0856C147.355 40.0735 147.623 40.1152 147.875 40.208C148.127 40.3009 148.358 40.443 148.554 40.6262Z" fill="#333333"/>
<path d="M153.64 40.3679C153.941 40.5328 154.19 40.7765 154.362 41.0728V40.1697H155.194V45.2339C155.201 45.6523 155.102 46.0656 154.905 46.4354C154.714 46.785 154.426 47.0722 154.075 47.2624C153.69 47.4689 153.259 47.5724 152.822 47.5628C152.243 47.5846 151.672 47.4227 151.192 47.1002C150.982 46.9567 150.805 46.7704 150.672 46.5537C150.539 46.3369 150.454 46.0946 150.421 45.8427H151.236C151.327 46.1459 151.527 46.4052 151.797 46.5716C152.104 46.7621 152.461 46.8582 152.822 46.8479C153.026 46.8555 153.23 46.8217 153.42 46.7483C153.611 46.675 153.785 46.5638 153.931 46.4214C154.081 46.2613 154.197 46.0721 154.271 45.8654C154.346 45.6587 154.376 45.439 154.362 45.2199V44.1946C154.187 44.4947 153.937 44.7439 153.636 44.9175C153.296 45.116 152.907 45.2165 152.513 45.2079C152.09 45.2128 151.674 45.0993 151.312 44.8802C150.95 44.6611 150.657 44.3453 150.466 43.9684C150.256 43.5534 150.15 43.0935 150.159 42.6287C150.149 42.1656 150.254 41.7073 150.466 41.2951C150.659 40.9245 150.953 40.6157 151.314 40.404C151.679 40.1913 152.095 40.0819 152.517 40.0876C152.91 40.0795 153.297 40.1763 153.64 40.3679ZM154.135 41.6615C153.996 41.3955 153.784 41.1742 153.524 41.0227C153.265 40.8795 152.974 40.8043 152.679 40.8043C152.383 40.8043 152.092 40.8795 151.833 41.0227C151.578 41.1735 151.369 41.3927 151.232 41.6555C151.074 41.9568 150.996 42.2931 151.005 42.6327C150.994 42.9803 151.072 43.3248 151.232 43.6339C151.368 43.9001 151.577 44.1227 151.833 44.2767C152.089 44.4237 152.38 44.4997 152.676 44.497C152.973 44.4997 153.265 44.4237 153.524 44.2767C153.784 44.1242 153.996 43.9014 154.135 43.6339C154.291 43.3308 154.369 42.9935 154.362 42.6527C154.372 42.3084 154.294 41.9672 154.135 41.6615Z" fill="#333333"/>
<path d="M159.027 39.2005C158.948 39.1218 158.894 39.0215 158.873 38.9124C158.851 38.8032 158.863 38.6902 158.906 38.5875C158.949 38.4849 159.021 38.3974 159.114 38.3361C159.207 38.2748 159.316 38.2425 159.428 38.2433C159.5 38.2422 159.571 38.2561 159.637 38.284C159.703 38.3119 159.763 38.3533 159.813 38.4055C159.916 38.5132 159.974 38.6567 159.974 38.806C159.974 38.9552 159.916 39.0987 159.813 39.2065C159.764 39.2593 159.704 39.3013 159.638 39.3295C159.571 39.3578 159.5 39.3718 159.428 39.3707C159.353 39.3717 159.278 39.3571 159.209 39.3278C159.14 39.2985 159.078 39.2551 159.027 39.2005ZM159.829 40.1697V45.1258H159.004V40.1697H159.829Z" fill="#333333"/>
<path d="M165.123 40.6262C165.496 40.9907 165.684 41.5173 165.684 42.2042V45.1258H164.868V42.3223C164.896 41.9103 164.763 41.5035 164.497 41.1869C164.366 41.0523 164.208 40.947 164.033 40.8779C163.858 40.8089 163.67 40.7777 163.482 40.7864C163.291 40.7762 163.1 40.8067 162.921 40.8757C162.742 40.9447 162.58 41.0508 162.446 41.1869C162.168 41.5165 162.03 41.9409 162.061 42.3704V45.1118H161.232V40.1697H162.057V40.8745C162.221 40.6212 162.451 40.4176 162.722 40.2858C163.012 40.1481 163.33 40.0795 163.651 40.0856C163.92 40.073 164.189 40.1144 164.442 40.2072C164.694 40.3001 164.926 40.4425 165.123 40.6262Z" fill="#333333"/>
<path d="M170.353 44.8955C169.977 44.6864 169.669 44.3745 169.465 43.9964C169.245 43.5803 169.134 43.1152 169.144 42.6447C169.133 42.1723 169.247 41.7052 169.475 41.2911C169.684 40.9139 169.996 40.6036 170.375 40.396C170.769 40.1908 171.208 40.0837 171.652 40.0837C172.097 40.0837 172.535 40.1908 172.93 40.396C173.309 40.6019 173.622 40.9109 173.832 41.287C174.06 41.6993 174.174 42.1642 174.163 42.6347C174.173 43.1077 174.055 43.5745 173.822 43.9864C173.607 44.369 173.289 44.6839 172.904 44.8955C172.509 45.1098 172.066 45.2194 171.616 45.2139C171.175 45.2199 170.739 45.1101 170.353 44.8955ZM172.451 44.2808C172.715 44.1363 172.933 43.9205 173.08 43.658C173.248 43.3471 173.33 42.9976 173.319 42.6447C173.33 42.2924 173.249 41.9432 173.084 41.6315C172.943 41.3696 172.729 41.154 172.469 41.0107C172.215 40.8771 171.931 40.8083 171.644 40.8105C171.356 40.8066 171.071 40.8755 170.816 41.0107C170.559 41.1539 170.349 41.3698 170.215 41.6315C170.055 41.9449 169.977 42.2934 169.988 42.6447C169.976 42.9983 170.053 43.3492 170.211 43.666C170.344 43.9284 170.554 44.1447 170.812 44.2868C171.062 44.4212 171.342 44.4901 171.626 44.487C171.915 44.486 172.198 44.413 172.451 44.2747V44.2808Z" fill="#333333"/>
<path d="M179.134 40.6262C179.51 40.9907 179.697 41.5167 179.696 42.2042V45.1258H178.88V42.3223C178.907 41.9103 178.774 41.5035 178.509 41.1869C178.378 41.0523 178.219 40.947 178.044 40.8779C177.87 40.8089 177.682 40.7777 177.494 40.7864C177.303 40.7762 177.111 40.8066 176.933 40.8757C176.754 40.9447 176.592 41.0508 176.457 41.1869C176.18 41.5165 176.042 41.9409 176.072 42.3704V45.1118H175.25V40.1697H176.072V40.8745C176.236 40.6212 176.466 40.4176 176.738 40.2858C177.028 40.1481 177.346 40.0795 177.667 40.0856C177.935 40.0728 178.203 40.1142 178.455 40.207C178.708 40.2999 178.939 40.4425 179.134 40.6262Z" fill="#333333"/>
<path d="M185.548 42.9551H181.581C181.581 43.1632 181.624 43.3691 181.705 43.5607C181.786 43.7523 181.905 43.9257 182.055 44.0707C182.204 44.2157 182.381 44.3293 182.576 44.4049C182.77 44.4806 182.977 44.5166 183.185 44.511C183.501 44.5219 183.813 44.4352 184.078 44.2627C184.312 44.1006 184.489 43.8676 184.581 43.5979H185.467C185.34 44.0649 185.057 44.4745 184.665 44.7593C184.233 45.0687 183.711 45.2264 183.179 45.2079C182.737 45.2154 182.301 45.1055 181.916 44.8895C181.545 44.6792 181.241 44.3672 181.042 43.9904C180.823 43.5739 180.714 43.1088 180.725 42.6387C180.718 42.1699 180.829 41.7069 181.046 41.2911C181.241 40.9161 181.542 40.6064 181.912 40.3999C182.305 40.1863 182.746 40.0786 183.193 40.0876C183.63 40.0784 184.061 40.1848 184.443 40.396C184.797 40.5921 185.088 40.8853 185.281 41.241C185.481 41.6146 185.583 42.0329 185.576 42.4565C185.575 42.6231 185.566 42.7895 185.548 42.9551ZM184.515 41.4753C184.38 41.2528 184.184 41.0741 183.949 40.9606C183.703 40.8411 183.431 40.7808 183.157 40.7844C182.764 40.7756 182.382 40.9191 182.092 41.1849C181.788 41.4737 181.607 41.8692 181.589 42.2883H184.723C184.732 42.003 184.66 41.7211 184.515 41.4753Z" fill="#333333"/>
<path d="M190.635 40.3719C190.978 40.1767 191.368 40.0784 191.762 40.0876C192.185 40.0819 192.601 40.1913 192.966 40.404C193.326 40.6157 193.62 40.9245 193.814 41.2951C194.025 41.7073 194.131 42.1656 194.121 42.6287C194.129 43.0935 194.024 43.5533 193.814 43.9684C193.622 44.3453 193.329 44.6611 192.967 44.8802C192.606 45.0993 192.189 45.2128 191.766 45.2079C191.374 45.2156 190.987 45.1166 190.647 44.9215C190.345 44.7516 190.091 44.5077 189.909 44.2127V47.4767H189.085V40.1697H189.909V41.0908C190.083 40.7909 190.334 40.5427 190.635 40.3719ZM193.042 41.6515C192.904 41.3885 192.696 41.1693 192.44 41.0187C192.181 40.8739 191.889 40.7994 191.592 40.8024C191.298 40.8008 191.009 40.8768 190.754 41.0227C190.493 41.1758 190.279 41.3983 190.138 41.6655C189.979 41.965 189.9 42.3 189.907 42.6387C189.899 42.9801 189.979 43.3178 190.138 43.6199C190.279 43.8871 190.493 44.1097 190.754 44.2627C191.011 44.4071 191.302 44.4829 191.597 44.4829C191.892 44.4829 192.183 44.4071 192.44 44.2627C192.697 44.1087 192.905 43.8861 193.042 43.6199C193.201 43.3108 193.279 42.9662 193.268 42.6187C193.277 42.2829 193.201 41.9503 193.048 41.6515H193.042Z" fill="#333333"/>
<path d="M196.03 38.4315V45.1258H195.206V38.4315H196.03Z" fill="#333333"/>
<path d="M197.434 41.2911C197.626 40.9206 197.92 40.6118 198.28 40.3999C198.645 40.1875 199.061 40.0782 199.483 40.0836C199.879 40.0737 200.27 40.1706 200.616 40.3639C200.915 40.5289 201.163 40.7727 201.332 41.0688V40.1697H202.164V45.1258H201.332V44.2026C201.157 44.503 200.905 44.7512 200.602 44.9215C200.259 45.1173 199.87 45.2163 199.475 45.2079C199.053 45.213 198.638 45.0995 198.278 44.8803C197.918 44.6611 197.626 44.3451 197.438 43.9684C197.226 43.5539 197.12 43.0938 197.129 42.6287C197.116 42.1643 197.221 41.7043 197.434 41.2911ZM201.101 41.6575C200.964 41.3928 200.756 41.1716 200.5 41.0187C200.241 40.8756 199.951 40.8006 199.656 40.8006C199.36 40.8006 199.07 40.8756 198.811 41.0187C198.555 41.1691 198.347 41.3884 198.21 41.6515C198.053 41.9532 197.975 42.2892 197.983 42.6287C197.973 42.9762 198.051 43.3205 198.21 43.6299C198.346 43.8961 198.555 44.1187 198.811 44.2727C199.067 44.4201 199.358 44.4962 199.654 44.493C199.95 44.4954 200.242 44.4195 200.5 44.2727C200.756 44.1187 200.965 43.8961 201.101 43.6299C201.257 43.3268 201.335 42.9895 201.328 42.6487C201.338 42.3058 201.26 41.966 201.101 41.6615V41.6575Z" fill="#333333"/>
<path d="M203.556 41.2911C203.75 40.9186 204.048 40.6094 204.412 40.3999C204.842 40.1724 205.325 40.0641 205.811 40.0863C206.297 40.1084 206.768 40.2603 207.176 40.5261C207.576 40.8299 207.853 41.2669 207.958 41.7576H207.071C206.995 41.4689 206.82 41.216 206.576 41.0427C206.309 40.8606 205.991 40.7686 205.668 40.7804C205.453 40.7724 205.24 40.8114 205.042 40.8948C204.845 40.9782 204.668 41.1039 204.525 41.263C204.215 41.6509 204.061 42.1397 204.091 42.6347C204.091 43.2315 204.236 43.6927 204.525 44.0184C204.667 44.1788 204.844 44.3057 205.041 44.3901C205.239 44.4746 205.453 44.5145 205.668 44.507C205.988 44.5192 206.305 44.4302 206.572 44.2527C206.819 44.078 206.995 43.822 207.071 43.5298H207.958C207.838 44.0151 207.555 44.4444 207.156 44.7453C206.724 45.062 206.197 45.2236 205.662 45.2039C205.222 45.2121 204.789 45.1021 204.406 44.8855C204.041 44.675 203.744 44.3644 203.55 43.9904C203.337 43.5709 203.23 43.1051 203.241 42.6347C203.233 42.1677 203.341 41.7059 203.556 41.2911Z" fill="#333333"/>
<path d="M213.557 42.9551H209.588C209.589 43.1632 209.631 43.3691 209.712 43.5607C209.793 43.7523 209.912 43.9257 210.062 44.0707C210.211 44.2157 210.388 44.3293 210.583 44.405C210.777 44.4806 210.984 44.5167 211.192 44.511C211.508 44.5219 211.82 44.4352 212.085 44.2627C212.32 44.1011 212.497 43.8679 212.588 43.5979H213.477C213.348 44.0644 213.066 44.4738 212.674 44.7593C212.242 45.0687 211.72 45.2264 211.188 45.2079C210.747 45.2151 210.311 45.1052 209.925 44.8895C209.554 44.6787 209.251 44.3668 209.051 43.9904C208.845 43.5702 208.738 43.1085 208.738 42.6407C208.738 42.1729 208.845 41.7113 209.051 41.2911C209.245 40.9158 209.546 40.6059 209.915 40.4C210.308 40.1863 210.749 40.0786 211.196 40.0876C211.633 40.0787 212.065 40.185 212.448 40.396C212.802 40.5922 213.092 40.8854 213.284 41.241C213.484 41.6146 213.586 42.0329 213.579 42.4565C213.58 42.623 213.573 42.7894 213.557 42.9551ZM212.524 41.4753C212.389 41.2533 212.192 41.0747 211.958 40.9606C211.709 40.8399 211.434 40.7795 211.156 40.7844C210.764 40.776 210.383 40.9195 210.093 41.1849C209.787 41.4727 209.607 41.8689 209.59 42.2883H212.725C212.735 42.0039 212.665 41.7223 212.524 41.4753Z" fill="#333333"/>
<path d="M207.9 7.50328V16.0599H196.385C193.927 16.0599 191.569 17.035 189.831 18.7707C188.092 20.5064 187.116 22.8606 187.116 25.3153C187.116 27.77 188.092 30.1242 189.831 31.8599C191.569 33.5956 193.927 34.5707 196.385 34.5707H213.998V7.50328H207.9ZM207.9 28.4772H196.385C195.544 28.4772 194.737 28.1437 194.143 27.5499C193.548 26.9562 193.214 26.151 193.214 25.3113C193.214 24.4716 193.548 23.6664 194.143 23.0727C194.737 22.4789 195.544 22.1454 196.385 22.1454H207.9V28.4772Z" fill="#1AADA6"/>
<path d="M143.048 21.036C144.183 21.036 145.272 21.4864 146.075 22.2882C146.878 23.09 147.329 24.1774 147.329 25.3113C147.329 26.4452 146.878 27.5326 146.075 28.3344C145.272 29.1362 144.183 29.5866 143.048 29.5866H127.488C126.352 29.5866 125.263 29.1362 124.46 28.3344C123.658 27.5326 123.206 26.4452 123.206 25.3113C123.206 24.1774 123.658 23.09 124.46 22.2882C125.263 21.4864 126.352 21.036 127.488 21.036H143.048ZM143.048 15.9858H127.488C125.011 15.9858 122.636 16.9683 120.884 18.7171C119.133 20.466 118.149 22.838 118.149 25.3113C118.149 27.7848 119.133 30.1569 120.884 31.9061C122.635 33.6553 125.011 34.6383 127.488 34.6388H143.048C145.525 34.6388 147.901 33.6561 149.653 31.9069C151.405 30.1576 152.389 27.7851 152.389 25.3113C152.389 24.0865 152.147 22.8737 151.678 21.7421C151.208 20.6105 150.52 19.5824 149.653 18.7164C148.785 17.8505 147.755 17.1636 146.622 16.6951C145.489 16.2265 144.274 15.9855 143.048 15.9858Z" fill="#FF7A17"/>
<path d="M174.35 15.9838H162.837V7.43118H156.736V34.4946H174.35C176.808 34.4946 179.165 33.5195 180.904 31.7838C182.642 30.0481 183.618 27.6939 183.618 25.2392C183.618 22.7845 182.642 20.4304 180.904 18.6946C179.165 16.9589 176.808 15.9838 174.35 15.9838ZM174.35 28.3991H162.837V22.0673H174.35C175.19 22.0673 175.997 22.4008 176.592 22.9946C177.186 23.5883 177.52 24.3935 177.52 25.2332C177.52 26.0729 177.186 26.8781 176.592 27.4718C175.997 28.0656 175.19 28.3991 174.35 28.3991Z" fill="#1AADA6"/>
<path d="M115.638 26.3005V34.6368H109.544V26.3005C109.544 25.1785 109.098 24.1024 108.304 23.3086C107.509 22.5148 106.432 22.0683 105.308 22.0673H100.05C98.9274 22.0683 97.8507 22.5143 97.0567 23.3072C96.2626 24.1001 95.816 25.1752 95.815 26.2965V34.6328H89.7186V26.3005C89.7186 23.5643 90.8071 20.9402 92.7447 19.0055C94.6823 17.0707 97.3102 15.9838 100.05 15.9838H105.308C108.048 15.9843 110.676 17.0715 112.613 19.0062C114.55 20.9409 115.638 23.5647 115.638 26.3005Z" fill="#1AADA6"/>
<path d="M86.3957 15.9838H80.2974V34.6388H86.3957V15.9838Z" fill="#1AADA6"/>
<path d="M86.3957 7.43319H80.2974V13.8371H86.3957V7.43319Z" fill="#1AADA6"/>
<path d="M78.1135 34.639L68.6461 25.1853L77.8568 15.9859H69.2337L61.3485 23.8597V7.43337H55.2502V34.639H61.3485V26.509L69.4884 34.639H78.1135Z" fill="#1AADA6"/>
<path d="M41.6256 40.8906C41.6275 42.7438 41.2629 44.5792 40.553 46.2914C39.8431 48.0037 38.8017 49.5593 37.4886 50.8689C34.8374 53.5151 31.2423 55.0016 27.4937 55.0016C23.7452 55.0016 20.1501 53.5151 17.4989 50.8689L10.6004 43.9804C11.7614 44.2266 12.9451 44.3501 14.1319 44.3488C16.3542 44.3541 18.5554 43.9194 20.6084 43.0697C22.6613 42.22 24.5251 40.9723 26.092 39.3987L36.0407 29.4764L37.4886 30.9162C38.8007 32.2258 39.8415 33.7807 40.5513 35.4922C41.2612 37.2037 41.6263 39.0381 41.6256 40.8906Z" fill="#1AADA6"/>
<path d="M37.4886 24.0858L36.0407 25.5316L26.092 15.6013C24.525 14.028 22.6611 12.7805 20.6082 11.9312C18.5553 11.0819 16.3541 10.6475 14.1319 10.6532C12.9451 10.6513 11.7615 10.7741 10.6004 11.0196L17.4989 4.13111C18.8104 2.81918 20.3684 1.77888 22.0836 1.06994C23.7988 0.360998 25.6374 -0.00261312 27.4937 -8.46165e-07C29.3503 -0.00393129 31.1892 0.359078 32.9046 1.06809C34.62 1.77711 36.1779 2.81811 37.4886 4.13111C38.8008 5.44131 39.8417 6.99678 40.5519 8.7087C41.262 10.4206 41.6276 12.2555 41.6276 14.1084C41.6276 15.9614 41.262 17.7963 40.5519 19.5082C39.8417 21.2201 38.8008 22.7756 37.4886 24.0858Z" fill="#1AADA6"/>
<path d="M24.1227 37.4323L34.0714 27.498L24.1227 17.5637C22.8104 16.2533 21.2525 15.2139 19.538 14.5047C17.8234 13.7955 15.9857 13.4305 14.1299 13.4305C12.2741 13.4305 10.4364 13.7955 8.72183 14.5047C7.00726 15.2139 5.44937 16.2533 4.1371 17.5637C1.4941 20.1968 0.00608004 23.7699 0 27.498C0.00586006 31.2261 1.49392 34.7993 4.1371 37.4323C5.44937 38.7427 7.00726 39.7821 8.72183 40.4913C10.4364 41.2005 12.2741 41.5655 14.1299 41.5655C15.9857 41.5655 17.8234 41.2005 19.538 40.4913C21.2525 39.7821 22.8104 38.7427 24.1227 37.4323Z" fill="#FF7A17"/>
</g>
<defs>
<clipPath id="clip0_1_471">
<rect width="214" height="55" fill="white"/>
</clipPath>
</defs>
</svg>
